<?xml version="1.0" encoding="iso-8859-1"?>
<!-- Generator: Adobe Illustrator 19.0.0, SVG Export Plug-In . SVG Version: 6.00 Build 0)  -->
<svg version="1.1" id="Capa_1" xmlns="http://www.w3.org/2000/svg" xmlns:xlink="http://www.w3.org/1999/xlink" x="0px" y="0px"
	 viewBox="0 0 512 512" style="enable-background:new 0 0 512 512;" xml:space="preserve">
<g>
	<path style="fill:#FFDC64;" d="M69,185c-6.893,0-12.5-5.607-12.5-12.5S62.107,160,69,160c6.893,0,12.5,5.607,12.5,12.5
		S75.893,185,69,185z"/>
	<path style="fill:#FFDC64;" d="M443,247c-6.893,0-12.5-5.607-12.5-12.5S436.107,222,443,222s12.5,5.607,12.5,12.5
		S449.893,247,443,247z"/>
	<path style="fill:#FFDC64;" d="M443,106c-6.893,0-12.5-5.607-12.5-12.5S436.107,81,443,81s12.5,5.607,12.5,12.5
		S449.893,106,443,106z"/>
</g>
<g>
	<path style="fill:#9B735A;" d="M258.5,338v-72h183.911c4.26,0,8.204,2.249,10.373,5.916l14.166,23.948
		c2.239,3.785,2.239,8.488,0,12.273l-14.166,23.948c-2.169,3.667-6.113,5.916-10.373,5.916L258.5,338L258.5,338z"/>
	<path style="fill:#9B735A;" d="M59.215,270.084l-14.166-23.948c-2.239-3.785-2.239-8.488,0-12.273l14.166-23.948
		c2.169-3.667,6.113-5.916,10.373-5.916H253.5v72H69.589C65.328,276,61.384,273.751,59.215,270.084z"/>
	<path style="fill:#9B735A;" d="M259.5,197v-72h182.911c4.26,0,8.204,2.249,10.373,5.916l14.166,23.948
		c2.239,3.785,2.239,8.488,0,12.273l-14.166,23.948c-2.169,3.667-6.113,5.916-10.373,5.916L259.5,197L259.5,197z"/>
</g>
<g>
	<rect x="258.5" y="266" style="fill:#7F553E;" width="34.756" height="72"/>
	<rect x="259.5" y="125" style="fill:#7F553E;" width="33.756" height="72"/>
</g>
<rect x="236.5" y="33.643" style="fill:#C7CFE2;" width="39" height="394.71"/>
<rect x="218.74" y="204" style="fill:#7F553E;" width="34.756" height="72"/>
<rect x="236.5" y="33.643" style="fill:#AAB5CC;" width="19.5" height="394.71"/>
<path style="fill:#FFDC64;" d="M239,54c-12.958,0-23.5-10.542-23.5-23.5S226.042,7,239,7h34c12.958,0,23.5,10.542,23.5,23.5
	S285.958,54,273,54H239z"/>
<path style="fill:#EFC03C;" d="M249.151,30.5c0-12.958,10.542-23.5,23.5-23.5H239c-12.958,0-23.5,10.542-23.5,23.5
	S226.042,54,239,54h33.651C259.693,54,249.151,43.458,249.151,30.5z"/>
<path style="fill:#5B5D6E;" d="M347.563,448.231l-2.152-9.076C341.063,420.811,324.855,408,306,408H206
	c-18.855,0-35.063,12.811-39.411,31.154l-2.152,9.076c-14.038,1.76-24.937,13.762-24.937,28.269c0,15.715,12.785,28.5,28.5,28.5h176
	c15.715,0,28.5-12.785,28.5-28.5C372.5,461.992,361.601,449.99,347.563,448.231z"/>
<path style="fill:#414454;" d="M313.356,438.462H228.2c-3.589,0-5.946-3.725-4.446-6.986C230.26,417.336,244.418,408,260.512,408
	h-54.52c-18.767,0-35.074,12.894-39.403,31.154l-2.152,9.076c-14.32,1.795-25.374,14.248-24.924,29.147
	c0.468,15.49,13.566,27.623,29.063,27.623h53.936c-15.715,0-28.5-12.785-28.5-28.5c0-14.331,10.638-26.21,24.429-28.194h95.127
	c2.878,0,5.179-2.47,4.899-5.406C318.223,440.341,315.927,438.462,313.356,438.462z"/>
<path d="M455.455,262.681C454.105,260.4,451.651,259,449,259h-51.581v-16.728h27.707c3.02,6.917,9.932,11.761,17.957,11.727
	c10.208-0.043,18.829-8.216,19.387-18.409C463.086,224.346,454.113,215,443,215c-8.197,0-15.217,5.091-18.095,12.272H282.5V204H449
	c2.651,0,5.106-1.4,6.455-3.682l21-35.5c1.394-2.355,1.394-5.282,0-7.637l-21-35.5C454.105,119.4,451.651,118,449,118h-51.581
	v-16.728h27.707c3.02,6.917,9.932,11.761,17.957,11.727c10.208-0.043,18.829-8.216,19.387-18.409C463.086,83.346,454.113,74,443,74
	c-8.197,0-15.217,5.091-18.095,12.272H282.5V59.477c12.268-4.032,21.129-15.644,20.999-29.273C303.338,13.361,289.158,0,272.314,0
	h-32.628c-16.843,0-31.024,13.361-31.184,30.204c-0.13,13.629,8.731,25.241,20.999,29.273v105.795H87.095
	c-2.861-7.138-9.813-12.211-17.947-12.272c-10.296-0.077-19.061,8.135-19.619,18.417C48.919,182.659,57.889,192,69,192
	c7.989,0,14.864-4.834,17.874-11.728h27.707V197H63c-2.651,0-5.106,1.4-6.455,3.682l-21,35.5c-1.394,2.355-1.394,5.282,0,7.637
	l21,35.5C57.895,281.6,60.349,283,63,283h166.5v23.649c0,4.142,3.358,7.5,7.5,7.5l0,0c4.142,0,7.5-3.358,7.5-7.5V61h23v340h-23
	v-50.69c0-4.142-3.358-7.5-7.5-7.5l0,0c-4.142,0-7.5,3.358-7.5,7.5V401H206c-24.047,0-43.964,17.966-47.067,41.178
	c-15.174,4.012-26.4,17.84-26.433,34.249C132.461,495.995,149.145,512,168.713,512h174.574c19.568,0,36.252-16.005,36.213-35.573
	c-0.033-16.41-11.259-30.238-26.433-34.249C349.964,418.966,330.047,401,306,401h-23.5v-56H449c2.651,0,5.106-1.4,6.455-3.682
	l21-35.5c1.394-2.355,1.394-5.282,0-7.637L455.455,262.681z M443,230c2.481,0,4.5,2.019,4.5,4.5s-2.019,4.5-4.5,4.5
	s-4.5-2.019-4.5-4.5S440.519,230,443,230z M443,89c2.481,0,4.5,2.019,4.5,4.5S445.481,98,443,98s-4.5-2.019-4.5-4.5
	S440.519,89,443,89z M69,177c-2.481,0-4.5-2.019-4.5-4.5s2.019-4.5,4.5-4.5s4.5,2.019,4.5,4.5S71.481,177,69,177z M129.581,180.272
	h64.407V197h-64.407V180.272z M229.5,268H67.277l-16.563-28l16.563-28H229.5V268z M229.5,197h-20.512v-16.728H229.5V197z
	 M318.012,242.272h64.407V259h-64.407L318.012,242.272L318.012,242.272z M303.012,242.272V259H282.5v-16.728H303.012z M444.723,133
	l16.563,28l-16.563,28H282.5v-56H444.723z M318.012,101.272h64.407V118h-64.407L318.012,101.272L318.012,101.272z M303.012,101.272
	V118H282.5v-16.728H303.012z M344,456c11.304,0,20.5,9.196,20.5,20.5S355.304,497,344,497H168c-11.304,0-20.5-9.196-20.5-20.5
	S156.696,456,168,456H344z M306,416c15.34,0,28.232,10.683,31.627,25H174.373c3.395-14.317,16.287-25,31.627-25H306z M273,46h-34
	c-8.547,0-15.5-6.953-15.5-15.5S230.453,15,239,15h34c8.547,0,15.5,6.953,15.5,15.5S281.547,46,273,46z M444.723,330H282.5v-56
	h162.223l16.563,28L444.723,330z"/>
<g>
</g>
<g>
</g>
<g>
</g>
<g>
</g>
<g>
</g>
<g>
</g>
<g>
</g>
<g>
</g>
<g>
</g>
<g>
</g>
<g>
</g>
<g>
</g>
<g>
</g>
<g>
</g>
<g>
</g>
</svg>
